<svg width="426" height="273" viewBox="0 0 426 273" fill="none" xmlns="http://www.w3.org/2000/svg">
<rect x="156.5" y="2.5" width="113" height="113" rx="12.5" stroke="white" stroke-width="5"/>
<path d="M194.946 86V62.6477L185.969 71.6534L183.753 69.4659L196.509 56.7386L209.236 69.4659L207.077 71.6534L198.071 62.6477V86H194.946Z" fill="white"/>
<rect x="156.5" y="157.5" width="113" height="113" rx="12.5" stroke="white" stroke-width="5"/>
<path d="M198.071 211.909V235.261L207.049 226.256L209.265 228.443L196.509 241.17L183.782 228.443L185.941 226.256L194.946 235.261V211.909H198.071Z" fill="white"/>
<rect x="2.5" y="157.5" width="113" height="113" rx="12.5" stroke="white" stroke-width="5"/>
<path d="M40.0941 241L27.3668 228.273L40.0941 215.545L42.2816 217.705L33.2759 226.71H56.5998V229.835H33.2759L42.2816 238.812L40.0941 241Z" fill="white"/>
<rect x="310.5" y="157.5" width="113" height="113" rx="12.5" stroke="white" stroke-width="5"/>
<path d="M352.924 241L350.736 238.841L359.742 229.835H336.418V226.71H359.742L350.736 217.733L352.924 215.545L365.651 228.273L352.924 241Z" fill="white"/>
</svg>
