<svg width="509" height="118" viewBox="0 0 509 118" fill="none" xmlns="http://www.w3.org/2000/svg">
<rect x="2.5" y="2.5" width="504" height="113" rx="12.5" stroke="#FFFEFE" stroke-width="5"/>
<path d="M65.4432 69.4545L63.0341 70.1364C62.8826 69.7348 62.6591 69.3447 62.3636 68.9659C62.0758 68.5795 61.6818 68.2614 61.1818 68.0114C60.6818 67.7614 60.0417 67.6364 59.2614 67.6364C58.1932 67.6364 57.303 67.8826 56.5909 68.375C55.8864 68.8598 55.5341 69.4773 55.5341 70.2273C55.5341 70.8939 55.7765 71.4205 56.2614 71.8068C56.7462 72.1932 57.5038 72.5152 58.5341 72.7727L61.125 73.4091C62.6856 73.7879 63.8485 74.3674 64.6136 75.1477C65.3788 75.9205 65.7614 76.9167 65.7614 78.1364C65.7614 79.1364 65.4735 80.0303 64.8977 80.8182C64.3295 81.6061 63.5341 82.2273 62.5114 82.6818C61.4886 83.1364 60.2992 83.3636 58.9432 83.3636C57.1629 83.3636 55.6894 82.9773 54.5227 82.2045C53.3561 81.4318 52.6174 80.303 52.3068 78.8182L54.8523 78.1818C55.0947 79.1212 55.553 79.8258 56.2273 80.2955C56.9091 80.7652 57.7992 81 58.8977 81C60.1477 81 61.1402 80.7348 61.875 80.2045C62.6174 79.6667 62.9886 79.0227 62.9886 78.2727C62.9886 77.6667 62.7765 77.1591 62.3523 76.75C61.928 76.3333 61.2765 76.0227 60.3977 75.8182L57.4886 75.1364C55.8902 74.7576 54.7159 74.1705 53.9659 73.375C53.2235 72.572 52.8523 71.5682 52.8523 70.3636C52.8523 69.3788 53.1288 68.5076 53.6818 67.75C54.2424 66.9924 55.0038 66.3977 55.9659 65.9659C56.9356 65.5341 58.0341 65.3182 59.2614 65.3182C60.9886 65.3182 62.3447 65.697 63.3295 66.4545C64.322 67.2121 65.0265 68.2121 65.4432 69.4545ZM69.7983 89.5455V65.5455H72.3892V68.3182H72.7074C72.9044 68.0152 73.1771 67.6288 73.5256 67.1591C73.8816 66.6818 74.3892 66.2576 75.0483 65.8864C75.715 65.5076 76.6165 65.3182 77.7528 65.3182C79.2225 65.3182 80.518 65.6856 81.6392 66.4205C82.7604 67.1553 83.6354 68.197 84.2642 69.5455C84.893 70.8939 85.2074 72.4848 85.2074 74.3182C85.2074 76.1667 84.893 77.7689 84.2642 79.125C83.6354 80.4735 82.7642 81.5189 81.6506 82.2614C80.5369 82.9962 79.2528 83.3636 77.7983 83.3636C76.6771 83.3636 75.7794 83.178 75.1051 82.8068C74.4309 82.428 73.9119 82 73.5483 81.5227C73.1847 81.0379 72.9044 80.6364 72.7074 80.3182H72.4801V89.5455H69.7983ZM72.4347 74.2727C72.4347 75.5909 72.6278 76.7538 73.0142 77.7614C73.4006 78.7614 73.965 79.5455 74.7074 80.1136C75.4498 80.6742 76.3589 80.9545 77.4347 80.9545C78.5559 80.9545 79.4915 80.6591 80.2415 80.0682C80.9991 79.4697 81.5672 78.6667 81.946 77.6591C82.3324 76.6439 82.5256 75.5152 82.5256 74.2727C82.5256 73.0455 82.3362 71.9394 81.9574 70.9545C81.5862 69.9621 81.0218 69.178 80.2642 68.6023C79.5142 68.0189 78.571 67.7273 77.4347 67.7273C76.3438 67.7273 75.4271 68.0038 74.6847 68.5568C73.9422 69.1023 73.3816 69.8674 73.0028 70.8523C72.6241 71.8295 72.4347 72.9697 72.4347 74.2727ZM94.4347 83.4091C93.3286 83.4091 92.3248 83.2008 91.4233 82.7841C90.5218 82.3598 89.8059 81.75 89.2756 80.9545C88.7453 80.1515 88.4801 79.1818 88.4801 78.0455C88.4801 77.0455 88.6771 76.2348 89.071 75.6136C89.465 74.9848 89.9915 74.4924 90.6506 74.1364C91.3097 73.7803 92.0369 73.5152 92.8324 73.3409C93.6354 73.1591 94.4422 73.0152 95.2528 72.9091C96.3134 72.7727 97.1733 72.6705 97.8324 72.6023C98.4991 72.5265 98.9839 72.4015 99.2869 72.2273C99.5975 72.053 99.7528 71.75 99.7528 71.3182V71.2273C99.7528 70.1061 99.446 69.2348 98.8324 68.6136C98.2263 67.9924 97.3059 67.6818 96.071 67.6818C94.7907 67.6818 93.7869 67.9621 93.0597 68.5227C92.3324 69.0833 91.821 69.6818 91.5256 70.3182L88.9801 69.4091C89.4347 68.3485 90.0407 67.5227 90.7983 66.9318C91.5634 66.3333 92.3968 65.9167 93.2983 65.6818C94.2074 65.4394 95.1013 65.3182 95.9801 65.3182C96.5407 65.3182 97.1847 65.3864 97.9119 65.5227C98.6468 65.6515 99.3551 65.9205 100.037 66.3295C100.726 66.7386 101.298 67.3561 101.753 68.1818C102.207 69.0076 102.435 70.1136 102.435 71.5V83H99.7528V80.6364H99.6165C99.4347 81.0152 99.1316 81.4205 98.7074 81.8523C98.2831 82.2841 97.7188 82.6515 97.0142 82.9545C96.3097 83.2576 95.4498 83.4091 94.4347 83.4091ZM94.8438 81C95.9044 81 96.7983 80.7917 97.5256 80.375C98.2604 79.9583 98.8134 79.4205 99.1847 78.7614C99.5634 78.1023 99.7528 77.4091 99.7528 76.6818V74.2273C99.6392 74.3636 99.3892 74.4886 99.0028 74.6023C98.6241 74.7083 98.1847 74.803 97.6847 74.8864C97.1922 74.9621 96.7112 75.0303 96.2415 75.0909C95.7794 75.1439 95.4044 75.1894 95.1165 75.2273C94.4195 75.3182 93.768 75.4659 93.1619 75.6705C92.5634 75.8674 92.0786 76.1667 91.7074 76.5682C91.3438 76.9621 91.1619 77.5 91.1619 78.1818C91.1619 79.1136 91.5066 79.8182 92.196 80.2955C92.893 80.7652 93.7756 81 94.8438 81ZM114.42 83.3636C112.784 83.3636 111.375 82.9773 110.193 82.2045C109.011 81.4318 108.102 80.3674 107.466 79.0114C106.83 77.6553 106.511 76.1061 106.511 74.3636C106.511 72.5909 106.837 71.0265 107.489 69.6705C108.148 68.3068 109.064 67.2424 110.239 66.4773C111.42 65.7045 112.799 65.3182 114.375 65.3182C115.602 65.3182 116.708 65.5455 117.693 66C118.678 66.4545 119.485 67.0909 120.114 67.9091C120.742 68.7273 121.133 69.6818 121.284 70.7727H118.602C118.398 69.9773 117.943 69.2727 117.239 68.6591C116.542 68.0379 115.602 67.7273 114.42 67.7273C113.375 67.7273 112.458 68 111.67 68.5455C110.89 69.0833 110.28 69.8447 109.841 70.8295C109.409 71.8068 109.193 72.9545 109.193 74.2727C109.193 75.6212 109.405 76.7955 109.83 77.7955C110.261 78.7955 110.867 79.572 111.648 80.125C112.436 80.678 113.36 80.9545 114.42 80.9545C115.117 80.9545 115.75 80.8333 116.318 80.5909C116.886 80.3485 117.367 80 117.761 79.5455C118.155 79.0909 118.436 78.5455 118.602 77.9091H121.284C121.133 78.9394 120.758 79.8674 120.159 80.6932C119.568 81.5114 118.784 82.1629 117.807 82.6477C116.837 83.125 115.708 83.3636 114.42 83.3636ZM132.523 83.3636C130.841 83.3636 129.39 82.9924 128.17 82.25C126.958 81.5 126.023 80.4545 125.364 79.1136C124.712 77.7652 124.386 76.197 124.386 74.4091C124.386 72.6212 124.712 71.0455 125.364 69.6818C126.023 68.3106 126.939 67.2424 128.114 66.4773C129.295 65.7045 130.674 65.3182 132.25 65.3182C133.159 65.3182 134.057 65.4697 134.943 65.7727C135.83 66.0758 136.636 66.5682 137.364 67.25C138.091 67.9242 138.67 68.8182 139.102 69.9318C139.534 71.0455 139.75 72.4167 139.75 74.0455V75.1818H126.295V72.8636H137.023C137.023 71.8788 136.826 71 136.432 70.2273C136.045 69.4545 135.492 68.8447 134.773 68.3977C134.061 67.9508 133.22 67.7273 132.25 67.7273C131.182 67.7273 130.258 67.9924 129.477 68.5227C128.705 69.0455 128.11 69.7273 127.693 70.5682C127.277 71.4091 127.068 72.3106 127.068 73.2727V74.8182C127.068 76.1364 127.295 77.2538 127.75 78.1705C128.212 79.0795 128.852 79.7727 129.67 80.25C130.489 80.7197 131.439 80.9545 132.523 80.9545C133.227 80.9545 133.864 80.8561 134.432 80.6591C135.008 80.4545 135.504 80.1515 135.92 79.75C136.337 79.3409 136.659 78.8333 136.886 78.2273L139.477 78.9545C139.205 79.8333 138.746 80.6061 138.102 81.2727C137.458 81.9318 136.663 82.447 135.716 82.8182C134.769 83.1818 133.705 83.3636 132.523 83.3636Z" fill="white"/>
</svg>
