<svg width="426" height="273" viewBox="0 0 426 273" fill="none" xmlns="http://www.w3.org/2000/svg">
<rect x="156.5" y="2.5" width="113" height="113" rx="12.5" stroke="white" stroke-width="5"/>
<path d="M188.261 86L181.614 64.1818H185.136L189.852 80.8864H190.08L194.739 64.1818H198.318L202.92 80.8295H203.148L207.864 64.1818H211.386L204.739 86H201.443L196.67 69.2386H196.33L191.557 86H188.261Z" fill="white"/>
<rect x="156.5" y="157.5" width="113" height="113" rx="12.5" stroke="white" stroke-width="5"/>
<path d="M204.574 224.068L201.562 224.92C201.373 224.419 201.093 223.931 200.724 223.457C200.364 222.974 199.872 222.577 199.247 222.264C198.622 221.952 197.822 221.795 196.846 221.795C195.511 221.795 194.398 222.103 193.508 222.719C192.627 223.325 192.187 224.097 192.187 225.034C192.187 225.867 192.49 226.526 193.096 227.009C193.702 227.491 194.649 227.894 195.937 228.216L199.176 229.011C201.127 229.485 202.58 230.209 203.537 231.185C204.493 232.151 204.971 233.396 204.971 234.92C204.971 236.17 204.611 237.288 203.892 238.273C203.181 239.258 202.187 240.034 200.909 240.602C199.63 241.17 198.144 241.455 196.449 241.455C194.223 241.455 192.381 240.972 190.923 240.006C189.465 239.04 188.541 237.629 188.153 235.773L191.335 234.977C191.638 236.152 192.211 237.032 193.054 237.619C193.906 238.206 195.019 238.5 196.392 238.5C197.954 238.5 199.195 238.169 200.113 237.506C201.041 236.833 201.505 236.028 201.505 235.091C201.505 234.333 201.24 233.699 200.71 233.188C200.18 232.667 199.365 232.278 198.267 232.023L194.63 231.17C192.632 230.697 191.164 229.963 190.227 228.969C189.299 227.965 188.835 226.71 188.835 225.205C188.835 223.973 189.181 222.884 189.872 221.938C190.573 220.991 191.524 220.247 192.727 219.707C193.939 219.168 195.312 218.898 196.846 218.898C199.005 218.898 200.7 219.371 201.931 220.318C203.172 221.265 204.053 222.515 204.574 224.068Z" fill="white"/>
<rect x="2.5" y="157.5" width="113" height="113" rx="12.5" stroke="white" stroke-width="5"/>
<path d="M40.7191 241.511C39.3365 241.511 38.0818 241.251 36.9549 240.73C35.828 240.2 34.9331 239.438 34.2702 238.443C33.6074 237.439 33.2759 236.227 33.2759 234.807C33.2759 233.557 33.5221 232.544 34.0146 231.767C34.507 230.981 35.1651 230.366 35.989 229.92C36.8129 229.475 37.7219 229.144 38.7163 228.926C39.7201 228.699 40.7286 228.519 41.7418 228.386C43.0676 228.216 44.1424 228.088 44.9663 228.003C45.7996 227.908 46.4057 227.752 46.7844 227.534C47.1727 227.316 47.3668 226.937 47.3668 226.398V226.284C47.3668 224.883 46.9833 223.794 46.2163 223.017C45.4587 222.241 44.3081 221.852 42.7646 221.852C41.1642 221.852 39.9094 222.203 39.0004 222.903C38.0913 223.604 37.4521 224.352 37.0827 225.148L33.9009 224.011C34.4691 222.686 35.2267 221.653 36.1737 220.915C37.1301 220.167 38.1718 219.646 39.2987 219.352C40.435 219.049 41.5524 218.898 42.6509 218.898C43.3517 218.898 44.1566 218.983 45.0657 219.153C45.9843 219.314 46.8697 219.651 47.7219 220.162C48.5837 220.673 49.2987 221.445 49.8668 222.477C50.435 223.509 50.7191 224.892 50.7191 226.625V241H47.3668V238.045H47.1964C46.9691 238.519 46.5903 239.026 46.06 239.565C45.5297 240.105 44.8242 240.564 43.9435 240.943C43.0629 241.322 41.988 241.511 40.7191 241.511ZM41.2305 238.5C42.5562 238.5 43.6737 238.24 44.5827 237.719C45.5013 237.198 46.1926 236.526 46.6566 235.702C47.1301 234.878 47.3668 234.011 47.3668 233.102V230.034C47.2248 230.205 46.9123 230.361 46.4293 230.503C45.9558 230.635 45.4066 230.754 44.7816 230.858C44.1661 230.953 43.5647 231.038 42.9776 231.114C42.4 231.18 41.9312 231.237 41.5714 231.284C40.7002 231.398 39.8858 231.582 39.1282 231.838C38.3801 232.084 37.774 232.458 37.31 232.96C36.8555 233.453 36.6282 234.125 36.6282 234.977C36.6282 236.142 37.0591 237.023 37.9208 237.619C38.792 238.206 39.8952 238.5 41.2305 238.5Z" fill="white"/>
<rect x="310.5" y="157.5" width="113" height="113" rx="12.5" stroke="white" stroke-width="5"/>
<path d="M349.385 241.455C347.567 241.455 345.962 240.995 344.57 240.077C343.178 239.149 342.089 237.842 341.303 236.156C340.517 234.461 340.124 232.458 340.124 230.148C340.124 227.856 340.517 225.867 341.303 224.182C342.089 222.496 343.182 221.194 344.584 220.276C345.985 219.357 347.605 218.898 349.442 218.898C350.862 218.898 351.984 219.134 352.808 219.608C353.642 220.072 354.276 220.602 354.712 221.199C355.157 221.786 355.502 222.269 355.749 222.648H356.033V211.909H359.385V241H356.146V237.648H355.749C355.502 238.045 355.152 238.547 354.697 239.153C354.243 239.75 353.594 240.285 352.751 240.759C351.909 241.223 350.786 241.455 349.385 241.455ZM349.839 238.443C351.184 238.443 352.321 238.093 353.249 237.392C354.177 236.682 354.882 235.702 355.365 234.452C355.848 233.192 356.089 231.739 356.089 230.091C356.089 228.462 355.853 227.037 355.379 225.815C354.906 224.584 354.205 223.628 353.277 222.946C352.349 222.255 351.203 221.909 349.839 221.909C348.419 221.909 347.235 222.274 346.288 223.003C345.351 223.723 344.645 224.703 344.172 225.943C343.708 227.174 343.476 228.557 343.476 230.091C343.476 231.644 343.713 233.055 344.186 234.324C344.669 235.583 345.379 236.587 346.317 237.335C347.264 238.074 348.438 238.443 349.839 238.443Z" fill="white"/>
</svg>
